<svg width="40" height="40" viewBox="0 0 40 40" fill="none" xmlns="http://www.w3.org/2000/svg">
<path d="M19.99 39.98C31.0302 39.98 39.98 31.0302 39.98 19.99C39.98 8.94983 31.0302 0 19.99 0C8.94983 0 0 8.94983 0 19.99C0 31.0302 8.94983 39.98 19.99 39.98Z" fill="#FFC35F"/>
<path d="M40.0001 19.99C40.0001 31.04 31.0401 40 19.9801 40C13.8001 40 8.28012 37.2001 4.62012 32.8C8.07012 35.66 12.5201 37.3801 17.3501 37.3801C28.4001 37.3801 37.3701 28.42 37.3701 17.37C37.3701 12.49 35.6201 8.02005 32.7101 4.55005C37.1701 8.20005 40.0001 13.76 40.0001 19.98V19.99Z" fill="#F2B95A"/>
<path d="M16.4302 28.2001C16.9202 26.8301 18.3302 25.8301 19.9902 25.8301C21.6502 25.8301 23.0602 26.8301 23.5502 28.2001" stroke="#6E4200" stroke-width="2" stroke-miterlimit="10" stroke-linecap="round"/>
<path d="M14.0001 23.5801C14.8893 23.5801 15.6101 22.8593 15.6101 21.9701C15.6101 21.0809 14.8893 20.3601 14.0001 20.3601C13.111 20.3601 12.3901 21.0809 12.3901 21.9701C12.3901 22.8593 13.111 23.5801 14.0001 23.5801Z" fill="#6E4200"/>
<path d="M25.9801 23.5801C26.8693 23.5801 27.5901 22.8593 27.5901 21.9701C27.5901 21.0809 26.8693 20.3601 25.9801 20.3601C25.0909 20.3601 24.3701 21.0809 24.3701 21.9701C24.3701 22.8593 25.0909 23.5801 25.9801 23.5801Z" fill="#6E4200"/>
<path d="M11.4399 18.3201L15.9899 21.0901" stroke="#6E4200" stroke-width="2" stroke-miterlimit="10" stroke-linecap="round"/>
<path d="M28.54 18.3201L23.99 21.0901" stroke="#6E4200" stroke-width="2" stroke-miterlimit="10" stroke-linecap="round"/>
</svg>
