<svg width="40" height="40" viewBox="0 0 40 40" fill="none" xmlns="http://www.w3.org/2000/svg">
<path d="M19.99 39.98C31.0302 39.98 39.98 31.0302 39.98 19.99C39.98 8.94983 31.0302 0 19.99 0C8.94983 0 0 8.94983 0 19.99C0 31.0302 8.94983 39.98 19.99 39.98Z" fill="#FFC35F"/>
<path d="M40.0001 19.99C40.0001 31.04 31.0401 40 19.9801 40C13.8001 40 8.28012 37.2001 4.62012 32.8C8.07012 35.66 12.5201 37.3801 17.3501 37.3801C28.4001 37.3801 37.3701 28.42 37.3701 17.37C37.3701 12.49 35.6201 8.02005 32.7101 4.55005C37.1701 8.20005 40.0001 13.76 40.0001 19.98V19.99Z" fill="#F2B95A"/>
<path d="M14.0001 16.98C14.8893 16.98 15.6101 16.2592 15.6101 15.37C15.6101 14.4808 14.8893 13.76 14.0001 13.76C13.111 13.76 12.3901 14.4808 12.3901 15.37C12.3901 16.2592 13.111 16.98 14.0001 16.98Z" fill="#6E4200"/>
<path d="M25.9801 16.98C26.8693 16.98 27.5901 16.2592 27.5901 15.37C27.5901 14.4808 26.8693 13.76 25.9801 13.76C25.0909 13.76 24.3701 14.4808 24.3701 15.37C24.3701 16.2592 25.0909 16.98 25.9801 16.98Z" fill="#6E4200"/>
<path d="M23.5499 19.2C23.0599 20.57 21.6499 21.57 19.9899 21.57C18.3299 21.57 16.9199 20.57 16.4299 19.2" stroke="#6E4200" stroke-width="2" stroke-miterlimit="10" stroke-linecap="round"/>
</svg>
