<svg width="122" height="326" viewBox="0 0 122 326" fill="none" xmlns="http://www.w3.org/2000/svg">
<g clip-path="url(#clip0_1_450)">
<path d="M91.2747 324.536H73.418C73.5538 323.594 74.0107 320.731 74.8381 318.104C75.1221 317.187 75.4679 316.294 75.8507 315.526C77.5919 312.043 88.6196 314.262 88.6196 314.262C88.6196 314.262 89.6446 315.142 90.4473 318.513C90.8054 320 91.1142 321.958 91.2747 324.548V324.536Z" fill="#233862"/>
<path d="M58.5012 49.6899C58.5012 49.6899 44.2751 52.1934 41.052 60.6207C37.8412 69.0481 19.6635 205.187 19.6635 205.187C19.6635 205.187 28.6659 212.338 47.9798 209.773C67.2937 207.207 58.5012 49.6899 58.5012 49.6899Z" fill="#AEC3FF"/>
<path d="M37.3225 319.443C37.2731 321.884 36.9644 324.189 36.0876 325.094H0.769348C1.21391 323.818 2.48587 321.884 6.11649 321.289C10.2411 320.62 16.6626 318.625 20.4043 314.647C21.738 313.234 22.7383 311.561 23.1705 309.615C24.8376 302.192 36.9027 311.895 36.9027 311.895C36.9027 311.895 37.3966 315.799 37.3102 319.43L37.3225 319.443Z" fill="#233862"/>
<path d="M22.1081 314.139C26.0598 315.403 33.5927 319.258 38.3841 317.448C41.4837 316.283 58.7847 266.029 59.9085 244.043C59.995 242.445 60.3037 240.214 60.7976 237.5C61.8226 231.824 63.6132 224.028 65.6879 215.428C71.2326 192.376 78.7161 163.55 78.5556 154.329C78.3086 140.027 36.0872 151.33 36.0872 151.33C36.0872 151.33 33.1852 163.066 32.6048 180.045C31.4563 213.767 28.3073 270.714 19.7371 310.273C19.3789 311.946 20.478 313.606 22.1204 314.127L22.1081 314.139Z" fill="#59A9AD"/>
<path d="M51.4125 154.378L73.7272 316.729C73.7272 316.729 83.5324 319.096 91.1517 317.2C91.1517 317.2 97.6844 230.857 97.141 209.974C96.5977 189.104 101.834 154.118 95.9432 150.264C90.0527 146.409 51.4001 154.378 51.4001 154.378H51.4125Z" fill="#6BB7BF"/>
<path d="M98.7845 57.1284C98.7845 57.1284 75.3213 41.9095 58.5019 49.6925C55.8222 50.9318 52.7596 54.3895 50.5738 56.8186C44.4981 63.5481 32.606 170.377 32.606 170.377C32.606 170.377 66.3436 181.841 98.7845 166.486V57.1284Z" fill="white"/>
<path d="M57.1681 49.3057C57.1681 49.3057 33.4209 59.0715 30.2101 66.5818C26.9994 74.0921 16.5397 120.17 16.5397 125.573C16.5397 130.977 34.7422 126.788 37.669 118.063C40.1017 110.825 48.3138 88.5921 52.636 74.5258L57.1681 49.3057Z" fill="#AEC3FF"/>
<path d="M62.0943 56.7422C67.2809 57.7584 74.8879 56.6802 80.4696 52.9871C77.9504 46.9516 76.9255 42.1926 76.555 39.1067C76.5303 38.9456 76.5179 38.7845 76.5056 38.6357C76.3451 37.037 76.3698 35.9588 76.4438 35.4507H63.0451C63.0451 35.4507 59.3775 37.1362 59.3775 38.2887C59.3775 38.9084 59.3775 39.5033 59.3651 40.0733C59.3404 41.6225 59.2787 42.9734 59.1922 44.1259C58.9329 47.9058 58.5007 49.6781 58.5007 49.6781C58.5007 49.6781 56.8583 55.7012 62.0943 56.7298V56.7422Z" fill="#FFB27D"/>
<path d="M59.1806 44.1339C69.3315 46.1042 75.2344 40.5403 76.5557 39.1028C76.7409 38.9045 76.8397 38.7806 76.8397 38.7806C76.7286 38.7311 76.6175 38.6815 76.5063 38.6319C72.7275 37.0953 64.1449 38.3221 59.3535 40.0818C59.3288 41.6308 59.267 42.9815 59.1806 44.1339Z" fill="#E2915A"/>
<path d="M79.8769 33.2483C78.0616 43.0513 65.4656 42.7291 60.0196 42.1095C58.4884 41.9359 57.5251 41.7377 57.5251 41.7377C55.7963 41.2791 54.833 38.5402 54.3885 34.971C53.4993 27.8945 54.6231 17.4966 55.8086 14.8444C57.5992 10.8414 60.9829 6.5162 73.6653 9.63929C86.3602 12.7624 82.1985 20.694 79.8769 33.2483Z" fill="#FFB27D"/>
<path d="M55.3266 9.36277C57.0555 6.95849 60.7355 4.00891 64.0821 2.19951C71.2569 -1.69196 80.4446 2.32344 80.4816 2.33583C90.8425 6.90892 93.5469 14.8654 88.0639 27.2585C82.2475 40.3705 76.7152 38.8958 76.7152 38.8958C76.7152 38.8958 77.8883 38.1646 77.7895 34.0748C77.7895 33.8393 77.7772 33.6534 77.7648 33.4799C77.7154 32.6372 77.9995 31.8069 78.6293 31.2492C79.9136 30.0966 80.5434 26.6141 79.469 25.635C78.1723 24.4577 76.3447 25.8829 75.7519 26.9859C75.2456 27.7543 74.3318 28.0269 73.4797 27.494C70.2566 25.4491 72.3436 21.3594 69.2687 18.856C66.1814 16.3525 59.9328 18.4594 55.3019 16.4641C49.2509 14.1961 54.03 11.197 55.339 9.38756L55.3266 9.36277Z" fill="#233862"/>
<path d="M53.8819 215.193C55.9195 215.726 57.9448 216.159 59.9576 216.482C61.7359 216.791 63.5018 217.015 65.2801 217.163C75.3199 218.043 85.3967 216.618 97.19 213.235C99.8451 212.466 102.587 211.611 105.427 210.644C105.736 210.545 104.649 179.265 103.414 147.005C103.29 143.672 103.155 140.325 103.031 137.016C102.969 135.604 102.92 134.216 102.871 132.815C101.747 104.286 100.623 78.5082 100.388 77.1201C99.8451 73.9847 99.3511 71.3077 98.7954 68.9902C97.19 62.2359 95.2018 58.518 90.8426 55.3329C90.4227 55.0107 86.9403 53.2508 83.8778 51.7265C81.3339 50.4624 79.074 49.3594 79.074 49.3594C78.0613 49.8551 76.8511 52.185 75.5792 55.4444C73.2452 61.4551 70.726 70.6757 68.9725 77.5539C68.9725 77.5787 68.9725 77.5787 68.9725 77.5911C67.8487 82.0402 67.0337 85.4979 66.799 86.4894C66.4039 88.1625 65.8852 91.4095 65.2801 95.8091C64.4527 101.795 63.4648 109.913 62.4275 119.133C62.3163 120.075 62.2175 121.042 62.1064 122.008C61.9829 123.111 61.8594 124.227 61.7359 125.367C61.6989 125.726 61.6618 126.098 61.6124 126.457C61.2049 130.113 60.8097 133.881 60.4022 137.71C60.0688 140.871 55.2774 143.163 54.9563 146.386C54.771 148.282 54.3635 165.719 53.8572 171.296C53.4867 175.274 53.7461 213.359 53.8943 215.23L53.8819 215.193Z" fill="#AEC3FF"/>
<path d="M88.5098 88.6164C88.5221 88.6784 89.3248 117.468 67.751 120.963C46.1772 124.458 60.5145 125.387 60.5145 125.387C60.5145 125.387 101.118 123.652 101.785 122.574C102.452 121.496 88.5221 88.604 88.5221 88.604L88.5098 88.6164Z" fill="#9DB0F4"/>
<path d="M70.2692 133.335C70.2692 133.335 70.6767 133.62 71.4547 134.128C71.4671 134.128 71.4794 134.141 71.4918 134.153C74.789 136.26 84.5571 142.01 98.7832 145.865C100.277 146.274 101.821 146.658 103.414 147.005C103.291 143.671 103.155 140.325 103.031 137.016C104.908 136.867 106.711 136.632 108.378 136.272C108.317 135.838 108.267 135.392 108.205 134.959C106.39 134.215 104.6 133.496 102.858 132.815C101.451 132.257 100.08 131.736 98.7832 131.241C92.9421 129.01 88.6076 127.51 88.6076 127.51L71.3065 133.013L70.2692 133.347V133.335Z" fill="#9DB0F4"/>
<path d="M65.7009 132.846C65.7009 132.846 67.9237 133.404 71.4555 134.123C71.4679 134.123 71.4802 134.123 71.4926 134.123C78.0129 135.437 88.9788 137.283 98.784 137.184C100.229 137.172 101.649 137.11 103.02 136.998C104.897 136.849 106.7 136.614 108.367 136.254C111.948 135.499 114.949 134.21 116.912 132.202C131.484 117.305 108.96 63.841 104.218 58.6359C98.6852 52.5632 88.596 50.4316 83.0266 49.7004C82.7919 49.6756 82.5697 49.6384 82.3597 49.6137C80.3962 49.3782 79.149 49.3286 79.0749 49.3286C79.0749 49.3286 79.5071 50.7414 80.248 53.1333C80.5321 54.0628 80.8655 55.1286 81.2236 56.3308C84.6443 67.5838 91.251 89.6933 94.1654 102.161C95.2274 106.722 95.8078 109.993 95.5485 110.972C94.4124 115.236 82.6314 117.417 75.1726 118.384C72.0606 118.792 69.702 118.978 69.1709 119.016C69.1339 119.016 69.0969 119.016 69.0598 119.016L68.6276 120.788L67.5903 125.051L66.5776 129.24L65.7009 132.834V132.846Z" fill="#AEC3FF"/>
<path d="M25.0481 158.478L75.0988 156.358L64.9479 93.7603L14.8972 95.8795L25.0481 158.478Z" fill="#233862"/>
<path d="M69.0468 119.045C69.0468 119.045 59.3034 118.364 58.8094 120.644C57.6733 125.961 67.1821 130.323 70.2693 130.025C73.3566 129.728 71.282 118.698 69.0468 119.045Z" fill="#FFB27D"/>
<path d="M17.6263 108.597C17.6263 108.597 26.9499 105.672 27.9501 107.779C30.2841 112.686 22.035 119.131 18.96 119.565C15.8975 119.986 15.3665 108.782 17.6263 108.609V108.597Z" fill="#FFB27D"/>
<path d="M78.0625 46.1934C78.0625 46.1934 82.1624 48.1515 84.2123 51.1135C84.2123 51.1135 68.8872 77.8084 68.9613 77.5605C69.0354 77.3127 74.1355 49.6139 78.0625 46.1934Z" fill="#9DB0F4"/>
<path d="M58.9705 46.5776C57.6245 47.0858 55.0312 49.7503 54.4507 51.2251L52.6354 74.5367C52.6354 74.5367 56.5254 57.4341 58.5012 49.7007C59.0075 47.7302 58.9088 47.1353 58.9705 46.59V46.5776Z" fill="#9DB0F4"/>
<path d="M79.5692 74.042H92.5233V68.2054H79.5692V74.042Z" fill="#EBF3FA"/>
</g>
<defs>
<clipPath id="clip0_1_450">
<rect width="120.984" height="324.59" fill="white" transform="translate(0.770081 0.503906)"/>
</clipPath>
</defs>
</svg>
