<svg width="60" height="77" viewBox="0 0 60 77" fill="none" xmlns="http://www.w3.org/2000/svg">
<rect opacity="0.5" y="9" width="60" height="60" rx="30" fill="#59BCFF"/>
<g clip-path="url(#clip0_10_3665)">
<path d="M33.7784 15.9341L36.9213 27.9931L36.2765 27.0639L45.243 34.0997L43.6492 36.2786L34.2285 29.8677L33.7743 29.5593L33.5837 28.9426L29.9095 17.0377L33.7784 15.9341Z" fill="#FFC9A6"/>
<path d="M45.3404 34.1077C46.3664 34.9963 46.4759 36.5504 45.5878 37.5769C44.6997 38.6035 43.1464 38.7131 42.1204 37.8245C41.0944 36.9359 40.9849 35.3818 41.873 34.3553C42.7612 33.3287 44.3144 33.2191 45.3404 34.1077Z" fill="#FFC9A6"/>
<path d="M30.6153 24.2031L29.5528 17.001C29.2608 15.6782 30.0921 14.3717 31.4142 14.0755C32.7363 13.7834 34.0421 14.6152 34.3381 15.9379L36.3496 21.6793L30.6193 24.2031H30.6153Z" fill="#FFF6F2"/>
<path d="M13.1486 65.1804L10.614 67.9517L13.2865 69.8912L15.7644 67.1524L13.1486 65.1804Z" fill="#FFC9A6"/>
<path d="M38.9247 71.3763L39.9791 74.9834L43.0206 73.7053L41.9662 70.1631L38.9247 71.3763Z" fill="#FFC9A6"/>
<path d="M32.4847 41.2166L30.2827 50.8533C29.8406 52.7806 29.0742 54.6227 28.0157 56.2904L15.7157 68.7673L11.1615 65.8053L22.618 51.3118L26.2719 34.2092L32.4847 41.2125V41.2166Z" fill="#1E1E1C"/>
<path d="M10.8574 67.1117C11.048 67.0184 11.2751 67.1279 11.3116 67.3389C11.3805 67.7487 11.6036 68.3736 12.2889 68.9051C13.0027 69.4569 13.5623 69.3433 13.8746 69.1851C14.0408 69.0999 14.2436 69.1648 14.3166 69.3352L16.7093 74.8088C16.8553 75.1416 16.8634 75.5189 16.7296 75.8557C16.6039 76.1722 16.1983 76.2614 15.9509 76.022L9.19466 69.4651C8.927 69.2054 8.93511 68.7793 9.20277 68.5278L10.537 67.2902C10.5573 67.2699 10.5857 67.2537 10.61 67.2375L10.8574 67.1157V67.1117Z" fill="#162026"/>
<path d="M35.0884 32.0669L24.9377 31.6287L25.5947 16.3236C25.688 14.1285 27.5454 12.4203 29.7434 12.5176L29.9827 12.5298C33.2594 12.6718 34.6463 15.3944 34.5044 18.6729L35.0884 32.0669Z" fill="#FAECE6"/>
<path d="M35.0883 32.0668L43.4789 71.7455L38.4624 73.401L32.8011 52.2571L26.3246 38.8145C26.0124 38.214 25.7042 37.585 25.4527 36.9358C24.9701 35.7105 24.7876 34.3877 24.8566 33.0731L24.9417 31.6245L35.0924 32.0627L35.0883 32.0668Z" fill="#464241"/>
<path d="M39.3871 74.3383C39.4033 74.1273 39.6182 73.9894 39.8169 74.0665C40.2022 74.2207 40.8511 74.3546 41.6621 74.0421C42.5016 73.7175 42.6963 73.1819 42.7247 72.8289C42.7409 72.6423 42.899 72.5043 43.0815 72.5287L48.9983 73.3199C49.3593 73.3686 49.6837 73.5593 49.9027 73.8474C50.1095 74.1192 49.9716 74.5128 49.6432 74.598L40.5347 76.9798C40.1779 77.0731 39.8129 76.8459 39.7399 76.4848L39.3708 74.7035C39.3668 74.6751 39.3627 74.6426 39.3668 74.6142L39.3871 74.3383Z" fill="#162026"/>
<path d="M29.1877 17.48L21.4744 27.2586L21.8231 26.1875L21.6285 37.5851L18.9276 37.6297L18.3558 26.2443L18.3274 25.6965L18.7045 25.1731L25.9759 15.0576L29.1877 17.48Z" fill="#FFC9A6"/>
<path d="M21.6772 37.6701C21.588 39.0253 20.416 40.0519 19.0615 39.9626C17.707 39.8734 16.681 38.7007 16.7702 37.3455C16.8594 35.9903 18.0314 34.9637 19.3859 35.053C20.7404 35.1423 21.7664 36.3149 21.6772 37.6701Z" fill="#FFC9A6"/>
<path d="M20.6876 19.9428L25.7852 14.7492C26.6612 13.7186 28.2063 13.5928 29.2404 14.4692C30.2705 15.3457 30.3962 16.8916 29.5203 17.9262L26.1583 22.9941L20.6876 19.9428Z" fill="#FFF6F2"/>
<path d="M31.4182 14.7734L31.0938 14.7572C30.0151 14.7126 29.1756 13.7956 29.2202 12.7163L29.5284 5.53442L33.4216 5.70078L33.0972 13.2275C33.0607 14.1161 32.3064 14.81 31.4182 14.7694V14.7734Z" fill="#FFC9A6"/>
<path d="M31.6129 9.96118C31.6129 9.96118 31.2965 11.9331 33.1296 12.6473L33.1864 11.3286L31.6169 9.96118H31.6129Z" fill="#FFBE99"/>
<path d="M36.3253 5.82671C36.2239 8.16385 34.2489 9.97757 31.913 9.87613C29.5771 9.7747 27.7643 7.79867 27.8617 5.46153C27.963 3.12438 29.938 1.31066 32.2739 1.40804C34.6098 1.50948 36.4226 3.4855 36.3253 5.82265V5.82671Z" fill="#FFC9A6"/>
<path d="M33.308 11.7059C32.1968 11.6572 31.3371 10.7199 31.3858 9.60817L31.5601 5.55469L36.3293 5.76162L36.1873 9.06446C36.1225 10.5901 34.8328 11.7708 33.3121 11.7059H33.308Z" fill="#FFC9A6"/>
<path d="M36.1631 6.76807L37.0268 8.17198C37.1485 8.3992 36.966 8.66294 36.6984 8.65482L35.6196 8.81307L36.1631 6.77212V6.76807Z" fill="#FFC9A6"/>
<mask id="mask0_10_3665" style="mask-type:luminance" maskUnits="userSpaceOnUse" x="27" y="1" width="10" height="9">
<path d="M36.3253 5.82671C36.2239 8.16385 34.2489 9.97757 31.913 9.87613C29.5771 9.7747 27.7643 7.79867 27.8617 5.46153C27.963 3.12438 29.938 1.31066 32.2739 1.40804C34.6098 1.50948 36.4226 3.4855 36.3253 5.82265V5.82671Z" fill="white"/>
</mask>
<g mask="url(#mask0_10_3665)">
<path d="M32.4321 7.50247C32.4321 7.50247 33.8312 6.99528 33.1377 4.80015C33.1377 4.80015 36.159 5.27894 36.8565 4.25643C36.8565 4.25643 34.5611 -1.81365 29.7433 0.539725C24.9255 2.8931 26.8559 8.35861 26.8559 8.35861L30.6964 9.64079L32.428 7.49841L32.4321 7.50247Z" fill="#121C21"/>
</g>
<path d="M32.6631 7.50635C32.6348 8.14744 32.0913 8.64652 31.4506 8.61812C30.8098 8.58972 30.311 8.04601 30.3394 7.40491C30.3678 6.76382 30.9112 6.26474 31.552 6.29315C32.1927 6.32155 32.6915 6.86526 32.6631 7.50635Z" fill="#FFC9A6"/>
<path d="M29.3215 8.02588L29.3337 10.0465C29.3337 10.0465 31.4952 10.6308 31.5844 8.6264L30.2786 8.80493L29.3215 8.02588Z" fill="#121C21"/>
<path d="M27.5331 13.0776L29.1715 11.5276L33.1255 12.6475L33.0322 14.8426L30.1975 15.9706L27.5331 13.0776Z" fill="#FAECE6"/>
<path d="M35.2303 32.7364L24.9093 32.2941L24.9377 31.6287L35.0883 32.0669L35.2303 32.7364Z" fill="#00243F"/>
<path d="M33.1376 4.80413C33.1376 4.80413 37.4201 5.87938 37.777 3.25821C38.0609 1.16452 36.1873 0.174477 34.6949 1.15235C33.6973 1.80967 33.3201 1.57433 32.6145 1.44043" fill="#121C21"/>
</g>
<defs>
<clipPath id="clip0_10_3665">
<rect width="41" height="77" fill="white" transform="translate(9)"/>
</clipPath>
</defs>
</svg>
